HIERARCHY
ROOT Hips
{
	OFFSET 0.000000 0.000000 0.000000
	CHANNELS 6 Xposition Yposition Zposition Zrotation Yrotation Xrotation 
	JOINT LHipJoint
	{
		OFFSET 0.000000 0.000000 0.000000
		CHANNELS 3 Zrotation Yrotation Xrotation
		JOINT LeftUpLeg
		{
			OFFSET 1.363060 -1.794630 0.839290
			CHANNELS 3 Zrotation Yrotation Xrotation
			JOINT LeftLeg
			{
				OFFSET 2.448110 -6.726130 0.000000
				CHANNELS 3 Zrotation Yrotation Xrotation
				JOINT LeftFoot
				{
					OFFSET 2.562200 -7.039590 0.000000
					CHANNELS 3 Zrotation Yrotation Xrotation
					JOINT LeftToeBase
					{
						OFFSET 0.157640 -0.433110 2.322550
						CHANNELS 3 Zrotation Yrotation Xrotation
						End Site
						{
							OFFSET 0.000000 0.000000 0.000000
						}
					}
				}
			}
		}
	}
	JOINT RHipJoint
	{
		OFFSET 0.000000 0.000000 0.000000
		CHANNELS 3 Zrotation Yrotation Xrotation
		JOINT RightUpLeg
		{
			OFFSET -1.305520 -1.794630 0.839290
			CHANNELS 3 Zrotation Yrotation Xrotation
			JOINT RightLeg
			{
				OFFSET -2.542530 -6.985550 0.000000
				CHANNELS 3 Zrotation Yrotation Xrotation
				JOINT RightFoot
				{
					OFFSET -2.568260 -7.056230 0.000000
					CHANNELS 3 Zrotation Yrotation Xrotation
					JOINT RightToeBase
					{
						OFFSET -0.164730 -0.452590 2.363150
						CHANNELS 3 Zrotation Yrotation Xrotation
						End Site
						{
							OFFSET 0.000000 0.000000 0.000000
						}
					}
				}
			}
		}
	}
}
MOTION
Frames: 31
Frame Time: 0.008333
-12.768434 16.993017 0.207715 -46.165166 88.197175 -35.543890 -11.047049 3.362454 0.280157 -6.992304 0.071156 3.567178 -0.991705 1.433931 24.903775 0.526076 2.510327 -0.308315 0.310700 0.000000 -70.493000 8.065708 -0.953868 3.537754 8.210112 7.980436 -29.593371 2.895337 0.036147 6.758566 0.354255 0.849521 9.684242 -0.428400 0.000000 -34.695999
-12.606958 17.020495 0.224440 -51.074023 88.005639 -40.486582 -11.249096 3.406710 0.230385 -6.443507 0.511877 2.531981 -0.765457 1.619209 27.248868 0.546424 2.499117 1.672912 0.370599 -0.000000 -71.603000 7.938913 -1.058947 3.572009 8.601533 8.322738 -29.041865 2.913036 0.013549 7.172514 0.307800 0.602162 9.143613 -0.508000 0.000000 -33.234300
-12.447890 17.047612 0.243280 -54.341463 87.825867 -43.778970 -11.427456 3.444138 0.176879 -5.964703 1.011729 1.367056 -0.535525 1.791308 29.691654 0.595375 2.557852 3.778636 0.428900 0.000001 -71.842700 7.847941 -1.144611 3.601265 8.956153 8.591710 -28.455659 2.931746 0.005382 7.486064 0.263345 0.381203 8.547449 -0.574500 0.000000 -31.660600
-12.291213 17.074031 0.263104 -57.179388 87.657148 -46.636044 -11.596012 3.463649 0.115886 -5.515532 1.581295 0.078041 -0.302558 1.945162 32.222330 0.677415 2.727563 5.941976 0.498100 0.000001 -71.154400 7.773953 -1.220476 3.628263 9.306895 8.801201 -27.819114 2.957126 0.014613 7.666416 0.221245 0.179008 7.927274 -0.631300 -0.000001 -29.965200
-12.136930 17.099461 0.283569 -59.934336 87.505374 -49.405615 -11.753494 3.459378 0.049630 -5.105539 2.195897 -1.315776 -0.072212 2.077656 34.815246 0.797184 3.088629 8.081855 0.608300 0.000001 -69.497300 7.714118 -1.289026 3.651157 9.656498 8.936999 -27.140235 2.990566 0.040006 7.715911 0.185268 0.016672 7.305225 -0.672500 0.000001 -28.251500
-11.984974 17.123708 0.304337 -62.859891 87.372130 -52.343854 -11.899437 3.426940 -0.020674 -4.739852 2.833567 -2.793556 0.149107 2.188255 37.445575 0.955034 3.713230 10.104972 0.798800 -0.000000 -66.886700 7.664934 -1.353012 3.667884 10.009357 8.988985 -26.426996 3.032989 0.079551 7.644360 0.158432 -0.089859 6.700352 -0.695100 0.000001 -26.614700
-11.835320 17.146632 0.325038 -66.111440 87.255848 -55.609047 -12.033606 3.364156 -0.094160 -4.422794 3.473876 -4.334754 0.355453 2.278973 40.087614 1.147779 4.656811 11.915344 1.109500 -0.000000 -63.416700 7.623162 -1.414746 3.676353 10.367543 8.951147 -25.689339 3.084383 0.130519 7.469175 0.142712 -0.130585 6.126700 -0.697900 0.000000 -25.140000
-11.687855 17.168129 0.345388 -69.762590 87.153047 -59.276356 -12.156598 3.271321 -0.169482 -4.156234 4.098456 -5.920971 0.542577 2.353699 42.714623 1.369892 5.947248 13.424831 1.568900 -0.000000 -59.277400 7.585438 -1.476405 3.675503 10.731169 8.824371 -24.936947 3.143821 0.189966 7.211762 0.138629 -0.103680 5.593133 -0.682600 -0.000000 -23.880500
-11.542809 17.188270 0.365582 -73.635039 87.069813 -63.176736 -12.263198 3.153472 -0.246987 -3.962831 4.684448 -7.517143 0.707054 2.418489 45.287830 1.615185 7.585892 14.565568 2.186800 -0.000000 -54.723700 7.556503 -1.535748 3.657865 11.082647 8.597191 -24.174041 3.207307 0.252799 6.905155 0.147621 0.002201 5.104031 -0.647500 0.000000 -22.940400
-11.399378 17.206951 0.384603 -78.025816 86.978971 -67.585620 -12.366973 3.009683 -0.320009 -3.800350 5.226503 -9.150669 0.851397 2.476289 47.799581 1.875604 9.507908 15.288174 2.931800 -0.000000 -50.135900 7.518558 -1.600240 3.638713 11.446121 8.322624 -23.423668 3.276723 0.321035 6.550296 0.162434 0.136771 4.659480 -0.607700 -0.000000 -22.176800
-11.258194 17.224492 0.403383 -82.437329 86.902546 -72.024115 -12.454257 2.851951 -0.390615 -3.718119 5.697773 -10.766208 0.973928 2.534073 50.198696 2.144122 11.647697 15.573529 3.757900 0.000000 -45.748100 7.488398 -1.661380 3.603060 11.779834 7.974441 -22.678129 3.344189 0.387613 6.189049 0.185578 0.323710 4.254710 -0.556900 -0.000000 -21.711700
-11.118930 17.240995 0.421672 -86.881940 86.831637 -76.492615 -12.529156 2.685190 -0.454032 -3.701946 6.090139 -12.372617 1.077642 2.594396 52.468595 2.411432 13.883855 15.419831 4.584000 0.000000 -41.783100 7.460844 -1.720577 3.559220 12.085134 7.588086 -21.948599 3.408170 0.453087 5.826023 0.211561 0.528309 3.883892 -0.504200 0.000000 -21.447700
-10.981468 17.256680 0.439598 -91.253381 86.767817 -80.880896 -12.590025 2.516232 -0.507756 -3.754017 6.395295 -13.965012 1.164834 2.659094 54.586672 2.667951 16.088210 14.850914 5.323001 -0.000000 -38.359700 7.438133 -1.775998 3.509960 12.351364 7.183369 -21.237483 3.465630 0.516922 5.467091 0.237033 0.731036 3.541309 -0.454200 0.000000 -21.338199
-10.845831 17.271731 0.457327 -95.469823 86.715186 -85.105425 -12.633933 2.351221 -0.551891 -3.876573 6.611225 -15.535979 1.237236 2.728811 56.532245 2.903258 18.131575 13.901894 5.890500 -0.000001 -35.440100 7.424176 -1.825087 3.455776 12.568332 6.774534 -20.540744 3.513918 0.578944 5.112415 0.259517 0.918123 3.219986 -0.409300 -0.000000 -21.326100
-10.711786 17.286328 0.474937 -99.525028 86.673983 -89.153712 -12.660834 2.193849 -0.582793 -4.063942 6.736373 -17.088573 1.296533 2.801135 58.286596 3.108325 19.903454 12.644048 6.228700 -0.000000 -33.062100 7.418951 -1.867750 3.402857 12.733723 6.384273 -19.857395 3.551876 0.640898 4.750675 0.275900 1.068942 2.916525 -0.373700 0.000000 -21.348300
-10.579369 17.300591 0.492539 -103.403189 86.647498 -93.012067 -12.668797 2.046891 -0.602048 -4.312709 6.776998 -18.612368 1.342640 2.873723 59.829947 3.274517 21.317834 11.145358 6.307000 0.000000 -31.113000 7.425067 -1.902422 3.350529 12.844525 6.019839 -19.175744 3.578674 0.703614 4.370839 0.285432 1.178866 2.627677 -0.347600 0.000000 -21.357000
-10.448458 17.314587 0.510149 -107.117490 86.635594 -96.694789 -12.657919 1.911007 -0.609934 -4.614134 6.740393 -20.099902 1.374729 2.942991 61.144238 3.395500 22.322272 9.488675 6.132500 0.000000 -29.509300 7.442460 -1.928999 3.299676 12.903693 5.688800 -18.485082 3.594720 0.768583 3.957936 0.287757 1.244421 2.352620 -0.331100 -0.000000 -21.314600
-10.318877 17.328303 0.527758 -110.700275 86.638138 -100.234540 -12.629053 1.785446 -0.604523 -4.959769 6.631528 -21.545359 1.391737 3.004197 62.210614 3.469210 22.909753 7.787161 5.757800 0.000001 -28.388200 7.470251 -1.948198 3.252002 12.915694 5.394743 -17.780310 3.600974 0.837106 3.499672 0.283407 1.267033 2.092933 -0.323300 -0.000000 -21.206401
-10.190645 17.341683 0.545272 -114.146520 86.653506 -103.634563 -12.583084 1.669250 -0.590706 -5.337916 6.467961 -22.932674 1.391353 3.055524 63.018348 3.493623 23.086837 6.083886 5.228799 -0.000000 -27.380800 7.507859 -1.960104 3.202919 12.888852 5.130073 -17.046860 3.599057 0.909136 2.988899 0.274512 1.259478 1.849715 -0.321100 0.000000 -21.030000
-10.063559 17.354570 0.562681 -117.489764 86.681909 -106.932235 -12.521857 1.560386 -0.566147 -5.741387 6.255051 -24.252628 1.373473 3.092616 63.552335 3.475403 22.922350 4.502608 4.640999 0.000000 -26.823000 7.554024 -1.966109 3.151707 12.828788 4.885517 -16.284214 3.590593 0.984303 2.426790 0.263500 1.236066 1.624331 -0.321600 0.000000 -20.808100
-9.937558 17.366792 0.579767 -120.718049 86.720745 -110.123061 -12.447393 1.457164 -0.535273 -6.159735 6.010852 -25.493405 1.337186 3.115006 63.812854 3.420421 22.479105 3.055585 4.041800 0.000000 -26.336800 7.607211 -1.967153 3.093660 12.745375 4.647503 -15.488128 3.577700 1.061094 1.820498 0.253387 1.215560 1.417961 -0.321101 0.000000 -20.568200
-9.812463 17.378119 0.596400 -123.834831 86.769239 -113.215197 -12.361869 1.357677 -0.498872 -6.586989 5.746336 -26.648812 1.283511 3.121473 63.802205 3.340340 21.853299 1.780251 3.484100 0.000000 -25.903800 7.665946 -1.964677 3.026065 12.645462 4.401406 -14.663470 3.562235 1.137494 1.185603 0.247059 1.216568 1.229956 -0.316300 0.000000 -20.348700
-9.688112 17.388321 0.612398 -126.830576 86.826042 -116.202733 -12.267523 1.260268 -0.457795 -7.018180 5.471652 -27.715230 1.214462 3.111654 63.529718 3.248610 21.146177 0.689155 2.999400 0.000000 -25.511501 7.728494 -1.960122 2.946915 12.535423 4.134840 -13.818739 3.545947 1.211185 0.542870 0.246833 1.255011 1.057374 -0.304700 0.000000 -20.185500
-9.564320 17.397114 0.627533 -129.682518 86.889882 -119.063957 -12.166426 1.163586 -0.412695 -7.448517 5.195681 -28.694898 1.132262 3.086107 63.012552 3.158301 20.449521 -0.239824 2.595200 -0.000001 -25.074700 7.792822 -1.954899 2.855794 12.421171 3.840172 -12.966414 3.530321 1.279982 -0.084639 0.253990 1.340977 0.895567 -0.284800 -0.000000 -20.108300
-9.440867 17.404309 0.641638 -132.363891 86.959545 -121.770236 -12.059892 1.066738 -0.364417 -7.874939 4.925079 -29.593123 1.038761 3.045958 62.272194 3.080620 19.836941 -1.054211 2.261900 -0.000000 -24.473700 7.857362 -1.950103 2.752958 12.306711 3.513453 -12.120443 3.516391 1.341849 -0.673199 0.268882 1.479598 0.737998 -0.256199 -0.000000 -20.139401
-9.317438 17.409695 0.654410 -134.810099 87.031367 -124.249832 -11.949689 0.968495 -0.311555 -8.290339 4.662860 -30.424685 0.936048 2.992218 61.333801 3.024051 19.358979 -1.799964 1.984801 0.000000 -23.699900 7.919015 -1.947191 2.643123 12.198298 3.164006 -11.298443 3.505050 1.396187 -1.204981 0.289814 1.662361 0.576975 -0.221000 0.000000 -20.274000
-9.193966 17.413187 0.665836 -137.023086 87.106737 -126.502951 -11.836020 0.869233 -0.253714 -8.693683 4.409703 -31.195032 0.825675 2.925895 60.216317 2.993845 19.043085 -2.510637 1.750100 -0.000000 -22.853900 7.977362 -1.946443 2.527663 12.095138 2.793820 -10.509673 3.496158 1.441971 -1.663602 0.315548 1.884570 0.404308 -0.180600 -0.000000 -20.518701
-9.070231 17.414726 0.675775 -138.974159 87.183167 -128.493243 -11.719509 0.768843 -0.189395 -9.079415 4.164937 -31.917938 0.708531 2.847995 58.940201 2.990848 18.883954 -3.224052 1.539200 0.000001 -21.957200 8.030685 -1.948437 2.411335 11.999621 2.416254 -9.764866 3.489556 1.479726 -2.042378 0.343275 2.129650 0.212866 -0.138100 0.000000 -20.854400
-8.945922 17.414282 0.684072 -140.607669 87.255658 -130.153109 -11.600823 0.666861 -0.116667 -9.440022 3.927899 -32.613068 0.584569 2.759466 57.525387 3.012025 18.847893 -3.979568 1.330800 0.000000 -20.912900 8.076585 -1.953830 2.300885 11.917095 2.051889 -9.074906 3.485177 1.511207 -2.343150 0.369477 2.374859 -0.004039 -0.097899 0.000000 -21.240000
-8.821012 17.411968 0.690757 -141.946704 87.322937 -131.501417 -11.480345 0.564281 -0.033761 -9.772145 3.696499 -33.287853 0.454636 2.660630 55.979951 3.052265 18.892992 -4.763390 1.121100 0.000001 -19.872800 8.114515 -1.962462 2.199645 11.847715 1.712158 -8.439653 3.482258 1.537961 -2.572673 0.391615 2.603096 -0.250651 -0.062600 -0.000000 -21.644400
-8.695346 17.407889 0.695834 -143.013608 87.381663 -132.555005 -11.358707 0.462133 0.060206 -10.072416 3.470655 -33.948949 0.319137 2.551877 54.309431 3.103993 18.965500 -5.557267 0.908600 0.000000 -18.872600 8.143885 -1.974017 2.110391 11.792596 1.408281 -7.856680 3.480213 1.561981 -2.743448 0.407509 2.798632 -0.529014 -0.034600 0.000000 -22.033900
